<svg width="46" height="46" viewBox="0 0 46 46" fill="none" xmlns="http://www.w3.org/2000/svg">
<path d="M0 23C0 10.2975 10.2975 0 23 0V0C35.7025 0 46 10.2975 46 23V23C46 35.7025 35.7025 46 23 46V46C10.2975 46 0 35.7025 0 23V23Z" fill="white"/>
<path fill-rule="evenodd" clip-rule="evenodd" d="M37.1909 23.3398C37.1909 22.2797 37.0958 21.2604 36.9191 20.2818H22.8389V26.0648H30.8847C30.5382 27.9335 29.4849 29.5168 27.9015 30.5769V34.328H32.7331C35.56 31.7254 37.1909 27.8927 37.1909 23.3398Z" fill="#4285F4"/>
<path fill-rule="evenodd" clip-rule="evenodd" d="M22.839 37.95C26.8755 37.95 30.2596 36.6113 32.7332 34.328L27.9016 30.5769C26.5629 31.4739 24.8505 32.004 22.839 32.004C18.9452 32.004 15.6494 29.3741 14.4738 25.8405H9.47916V29.7139C11.9391 34.5998 16.9949 37.95 22.839 37.95Z" fill="#34A853"/>
<path fill-rule="evenodd" clip-rule="evenodd" d="M14.4737 25.8405C14.1747 24.9435 14.0048 23.9853 14.0048 23C14.0048 22.0147 14.1747 21.0565 14.4737 20.1595V16.2861H9.47905C8.46653 18.3043 7.88892 20.5876 7.88892 23C7.88892 25.4124 8.46653 27.6957 9.47905 29.7139L14.4737 25.8405Z" fill="#FBBC05"/>
<path fill-rule="evenodd" clip-rule="evenodd" d="M22.839 13.996C25.0339 13.996 27.0046 14.7503 28.554 16.2317L32.8419 11.9438C30.2529 9.53141 26.8687 8.05 22.839 8.05C16.9949 8.05 11.9391 11.4002 9.47916 16.2861L14.4738 20.1595C15.6494 16.6259 18.9452 13.996 22.839 13.996Z" fill="#EA4335"/>
</svg>
