<svg width="40" height="39" viewBox="0 0 40 39" fill="none" xmlns="http://www.w3.org/2000/svg">
<path fill-rule="evenodd" clip-rule="evenodd" d="M19.993 0C15.2746 0.00244809 10.7109 1.6736 7.11804 4.71464C3.52513 7.75568 1.13726 11.9683 0.381406 16.5993C-0.374453 21.2302 0.550979 25.9775 2.99225 29.9922C5.43351 34.007 9.23141 37.0274 13.7068 38.5135C14.6942 38.6967 15.0661 38.0848 15.0661 37.5645C15.0661 37.0441 15.0463 35.5355 15.0398 33.8862C9.51058 35.0807 8.34223 31.553 8.34223 31.553C7.44045 29.2623 6.13714 28.6601 6.13714 28.6601C4.33358 27.4362 6.27209 27.4591 6.27209 27.4591C8.26983 27.5999 9.31971 29.4979 9.31971 29.4979C11.0904 32.5183 13.9701 31.6446 15.1023 31.1341C15.28 29.8546 15.7967 28.9841 16.3661 28.49C11.9494 27.9925 7.30879 26.2974 7.30879 18.725C7.28142 16.7611 8.01434 14.8619 9.35591 13.4203C9.15186 12.9229 8.47058 10.9136 9.55008 8.1844C9.55008 8.1844 11.2187 7.65427 15.0167 10.2101C18.2744 9.32424 21.7115 9.32424 24.9692 10.2101C28.7639 7.65427 30.4293 8.1844 30.4293 8.1844C31.5121 10.9071 30.8308 12.9164 30.6268 13.4203C31.9726 14.8621 32.707 16.7646 32.6771 18.7315C32.6771 26.3203 28.0267 27.9925 23.6034 28.4801C24.3143 29.0954 24.9495 30.2964 24.9495 32.142C24.9495 34.7862 24.9264 36.9132 24.9264 37.5645C24.9264 38.0913 25.2852 38.7066 26.2923 38.5135C30.7682 37.0273 34.5665 34.0063 37.0077 29.9908C39.4489 25.9754 40.3739 21.2274 39.6172 16.596C38.8604 11.9647 36.4714 7.75199 32.8773 4.71147C29.2832 1.67095 24.7185 0.00089637 19.9995 0H19.993Z" fill="#191717"/>
</svg>
